# xmcd
# 
# Track frame offsets:
#     150
#     18103
#     30798
#     45978
#     62280
#     76284
#     89644
#     100612
#     117539
#     129859
#     143221
# 
# Disc length: 2080
# 
# Revision: 3
# Processed by: cddbd v1.5.2PL0 Copyright (c) Steve Scherf et al.
# Submitted via: fre:ac v1.0.31
# 
DISCID=77081e0b
DTITLE=Wilko Johnson - Going Back Home With Roger Daltrey
DYEAR=2014
DGENRE=Blues
TTITLE0=Going Back Home
TTITLE1=Ice On The Motorway
TTITLE2=I Keep It To Myself
TTITLE3=Can You Please Crawl Out Your Window
TTITLE4=Turned 21
TTITLE5=Keep On Loving You
TTITLE6=Some Kind Of Hero
TTITLE7=Sneaking Suspicion
TTITLE8=Keep It Out Of Sight
TTITLE9=Everybody's Carrying A Gun
TTITLE10=All Through The City
EXTD=YEAR: 2014
EXTT0=
EXTT1=
EXTT2=
EXTT3=
EXTT4=
EXTT5=
EXTT6=
EXTT7=
EXTT8=
EXTT9=
EXTT10=
PLAYORDER=
